/* XPM */
static char *_411d1470db4449cc23ef784a25b4048Xk9i5iaeyuOUXASC[] = {
/* columns rows colors chars-per-pixel */
"128 128 6 1 ",
"  c gray32",
". c gray38",
"X c #6E6D6D",
"o c #888788",
"O c gray65",
"+ c gray71",
/* pixels */
"XXXXXXXX........OOOOOOOOOOOOOOOO        ................OOOOOOOO++++++++OOOOOOOOoooooooo........oooooooo++++++++OOOOOOOOoooooooo",
"XXXXXXXX........OOOOOOOOOOOOOOOO        ................OOOOOOOO++++++++OOOOOOOOoooooooo........oooooooo++++++++OOOOOOOOoooooooo",
"XXXXXXXX........OOOOOOOOOOOOOOOO        ................OOOOOOOO++++++++OOOOOOOOoooooooo........oooooooo++++++++OOOOOOOOoooooooo",
"XXXXXXXX........OOOOOOOOOOOOOOOO        ................OOOOOOOO++++++++OOOOOOOOoooooooo........oooooooo++++++++OOOOOOOOoooooooo",
"XXXXXXXX........OOOOOOOOOOOOOOOO        ................OOOOOOOO++++++++OOOOOOOOoooooooo........oooooooo++++++++OOOOOOOOoooooooo",
"XXXXXXXX........OOOOOOOOOOOOOOOO        ................OOOOOOOO++++++++OOOOOOOOoooooooo........oooooooo++++++++OOOOOOOOoooooooo",
"XXXXXXXX........OOOOOOOOOOOOOOOO        ................OOOOOOOO++++++++OOOOOOOOoooooooo........oooooooo++++++++OOOOOOOOoooooooo",
"XXXXXXXX........OOOOOOOOOOOOOOOO        ................OOOOOOOO++++++++OOOOOOOOoooooooo........oooooooo++++++++OOOOOOOOoooooooo",
"........OOOOOOOO++++++++oooooooooooooooo        ++++++++++++++++OOOOOOOOoooooooooooooooo        ........ooooooooXXXXXXXXoooooooo",
"........OOOOOOOO++++++++oooooooooooooooo        ++++++++++++++++OOOOOOOOoooooooooooooooo        ........ooooooooXXXXXXXXoooooooo",
"........OOOOOOOO++++++++oooooooooooooooo        ++++++++++++++++OOOOOOOOoooooooooooooooo        ........ooooooooXXXXXXXXoooooooo",
"........OOOOOOOO++++++++oooooooooooooooo        ++++++++++++++++OOOOOOOOoooooooooooooooo        ........ooooooooXXXXXXXXoooooooo",
"........OOOOOOOO++++++++oooooooooooooooo        ++++++++++++++++OOOOOOOOoooooooooooooooo        ........ooooooooXXXXXXXXoooooooo",
"........OOOOOOOO++++++++oooooooooooooooo        ++++++++++++++++OOOOOOOOoooooooooooooooo        ........ooooooooXXXXXXXXoooooooo",
"........OOOOOOOO++++++++oooooooooooooooo        ++++++++++++++++OOOOOOOOoooooooooooooooo        ........ooooooooXXXXXXXXoooooooo",
"........OOOOOOOO++++++++oooooooooooooooo        ++++++++++++++++OOOOOOOOoooooooooooooooo        ........ooooooooXXXXXXXXoooooooo",
"........OOOOOOOOooooooooOOOOOOOOXXXXXXXX........OOOOOOOOooooooooooooooooOOOOOOOOXXXXXXXX........        ........ooooooooXXXXXXXX",
"........OOOOOOOOooooooooOOOOOOOOXXXXXXXX........OOOOOOOOooooooooooooooooOOOOOOOOXXXXXXXX........        ........ooooooooXXXXXXXX",
"........OOOOOOOOooooooooOOOOOOOOXXXXXXXX........OOOOOOOOooooooooooooooooOOOOOOOOXXXXXXXX........        ........ooooooooXXXXXXXX",
"........OOOOOOOOooooooooOOOOOOOOXXXXXXXX........OOOOOOOOooooooooooooooooOOOOOOOOXXXXXXXX........        ........ooooooooXXXXXXXX",
"........OOOOOOOOooooooooOOOOOOOOXXXXXXXX........OOOOOOOOooooooooooooooooOOOOOOOOXXXXXXXX........        ........ooooooooXXXXXXXX",
"........OOOOOOOOooooooooOOOOOOOOXXXXXXXX........OOOOOOOOooooooooooooooooOOOOOOOOXXXXXXXX........        ........ooooooooXXXXXXXX",
"........OOOOOOOOooooooooOOOOOOOOXXXXXXXX........OOOOOOOOooooooooooooooooOOOOOOOOXXXXXXXX........        ........ooooooooXXXXXXXX",
"........OOOOOOOOooooooooOOOOOOOOXXXXXXXX........OOOOOOOOooooooooooooooooOOOOOOOOXXXXXXXX........        ........ooooooooXXXXXXXX",
"................ooooooooXXXXXXXX................ooooooooXXXXXXXXooooooooXXXXXXXX........ooooooooOOOOOOOOoooooooo........        ",
"................ooooooooXXXXXXXX................ooooooooXXXXXXXXooooooooXXXXXXXX........ooooooooOOOOOOOOoooooooo........        ",
"................ooooooooXXXXXXXX................ooooooooXXXXXXXXooooooooXXXXXXXX........ooooooooOOOOOOOOoooooooo........        ",
"................ooooooooXXXXXXXX................ooooooooXXXXXXXXooooooooXXXXXXXX........ooooooooOOOOOOOOoooooooo........        ",
"................ooooooooXXXXXXXX................ooooooooXXXXXXXXooooooooXXXXXXXX........ooooooooOOOOOOOOoooooooo........        ",
"................ooooooooXXXXXXXX................ooooooooXXXXXXXXooooooooXXXXXXXX........ooooooooOOOOOOOOoooooooo........        ",
"................ooooooooXXXXXXXX................ooooooooXXXXXXXXooooooooXXXXXXXX........ooooooooOOOOOOOOoooooooo........        ",
"................ooooooooXXXXXXXX................ooooooooXXXXXXXXooooooooXXXXXXXX........ooooooooOOOOOOOOoooooooo........        ",
"        XXXXXXXX........oooooooo++++++++OOOOOOOO........oooooooo................++++++++OOOOOOOOOOOOOOOOOOOOOOOOoooooooo........",
"        XXXXXXXX........oooooooo++++++++OOOOOOOO........oooooooo................++++++++OOOOOOOOOOOOOOOOOOOOOOOOoooooooo........",
"        XXXXXXXX........oooooooo++++++++OOOOOOOO........oooooooo................++++++++OOOOOOOOOOOOOOOOOOOOOOOOoooooooo........",
"        XXXXXXXX........oooooooo++++++++OOOOOOOO........oooooooo................++++++++OOOOOOOOOOOOOOOOOOOOOOOOoooooooo........",
"        XXXXXXXX........oooooooo++++++++OOOOOOOO........oooooooo................++++++++OOOOOOOOOOOOOOOOOOOOOOOOoooooooo........",
"        XXXXXXXX........oooooooo++++++++OOOOOOOO........oooooooo................++++++++OOOOOOOOOOOOOOOOOOOOOOOOoooooooo........",
"        XXXXXXXX........oooooooo++++++++OOOOOOOO........oooooooo................++++++++OOOOOOOOOOOOOOOOOOOOOOOOoooooooo........",
"        XXXXXXXX........oooooooo++++++++OOOOOOOO........oooooooo................++++++++OOOOOOOOOOOOOOOOOOOOOOOOoooooooo........",
"++++++++XXXXXXXXOOOOOOOO++++++++ooooooooooooooooXXXXXXXX........        oooooooooooooooo++++++++OOOOOOOOooooooooXXXXXXXXoooooooo",
"++++++++XXXXXXXXOOOOOOOO++++++++ooooooooooooooooXXXXXXXX........        oooooooooooooooo++++++++OOOOOOOOooooooooXXXXXXXXoooooooo",
"++++++++XXXXXXXXOOOOOOOO++++++++ooooooooooooooooXXXXXXXX........        oooooooooooooooo++++++++OOOOOOOOooooooooXXXXXXXXoooooooo",
"++++++++XXXXXXXXOOOOOOOO++++++++ooooooooooooooooXXXXXXXX........        oooooooooooooooo++++++++OOOOOOOOooooooooXXXXXXXXoooooooo",
"++++++++XXXXXXXXOOOOOOOO++++++++ooooooooooooooooXXXXXXXX........        oooooooooooooooo++++++++OOOOOOOOooooooooXXXXXXXXoooooooo",
"++++++++XXXXXXXXOOOOOOOO++++++++ooooooooooooooooXXXXXXXX........        oooooooooooooooo++++++++OOOOOOOOooooooooXXXXXXXXoooooooo",
"++++++++XXXXXXXXOOOOOOOO++++++++ooooooooooooooooXXXXXXXX........        oooooooooooooooo++++++++OOOOOOOOooooooooXXXXXXXXoooooooo",
"++++++++XXXXXXXXOOOOOOOO++++++++ooooooooooooooooXXXXXXXX........        oooooooooooooooo++++++++OOOOOOOOooooooooXXXXXXXXoooooooo",
"OOOOOOOOoooooooo........ooooooooOOOOOOOOooooooooooooooooXXXXXXXX................XXXXXXXXOOOOOOOOooooooooXXXXXXXX........++++++++",
"OOOOOOOOoooooooo........ooooooooOOOOOOOOooooooooooooooooXXXXXXXX................XXXXXXXXOOOOOOOOooooooooXXXXXXXX........++++++++",
"OOOOOOOOoooooooo........ooooooooOOOOOOOOooooooooooooooooXXXXXXXX................XXXXXXXXOOOOOOOOooooooooXXXXXXXX........++++++++",
"OOOOOOOOoooooooo........ooooooooOOOOOOOOooooooooooooooooXXXXXXXX................XXXXXXXXOOOOOOOOooooooooXXXXXXXX........++++++++",
"OOOOOOOOoooooooo........ooooooooOOOOOOOOooooooooooooooooXXXXXXXX................XXXXXXXXOOOOOOOOooooooooXXXXXXXX........++++++++",
"OOOOOOOOoooooooo........ooooooooOOOOOOOOooooooooooooooooXXXXXXXX................XXXXXXXXOOOOOOOOooooooooXXXXXXXX........++++++++",
"OOOOOOOOoooooooo........ooooooooOOOOOOOOooooooooooooooooXXXXXXXX................XXXXXXXXOOOOOOOOooooooooXXXXXXXX........++++++++",
"OOOOOOOOoooooooo........ooooooooOOOOOOOOooooooooooooooooXXXXXXXX................XXXXXXXXOOOOOOOOooooooooXXXXXXXX........++++++++",
"ooooooooooooooooXXXXXXXXXXXXXXXXooooooooooooooooXXXXXXXX........oooooooo++++++++OOOOOOOO........XXXXXXXXoooooooo........oooooooo",
"ooooooooooooooooXXXXXXXXXXXXXXXXooooooooooooooooXXXXXXXX........oooooooo++++++++OOOOOOOO........XXXXXXXXoooooooo........oooooooo",
"ooooooooooooooooXXXXXXXXXXXXXXXXooooooooooooooooXXXXXXXX........oooooooo++++++++OOOOOOOO........XXXXXXXXoooooooo........oooooooo",
"ooooooooooooooooXXXXXXXXXXXXXXXXooooooooooooooooXXXXXXXX........oooooooo++++++++OOOOOOOO........XXXXXXXXoooooooo........oooooooo",
"ooooooooooooooooXXXXXXXXXXXXXXXXooooooooooooooooXXXXXXXX........oooooooo++++++++OOOOOOOO........XXXXXXXXoooooooo........oooooooo",
"ooooooooooooooooXXXXXXXXXXXXXXXXooooooooooooooooXXXXXXXX........oooooooo++++++++OOOOOOOO........XXXXXXXXoooooooo........oooooooo",
"ooooooooooooooooXXXXXXXXXXXXXXXXooooooooooooooooXXXXXXXX........oooooooo++++++++OOOOOOOO........XXXXXXXXoooooooo........oooooooo",
"ooooooooooooooooXXXXXXXXXXXXXXXXooooooooooooooooXXXXXXXX........oooooooo++++++++OOOOOOOO........XXXXXXXXoooooooo........oooooooo",
"XXXXXXXX........++++++++OOOOOOOOXXXXXXXXXXXXXXXX........oooooooo++++++++oooooooooooooooooooooooo................        XXXXXXXX",
"XXXXXXXX........++++++++OOOOOOOOXXXXXXXXXXXXXXXX........oooooooo++++++++oooooooooooooooooooooooo................        XXXXXXXX",
"XXXXXXXX........++++++++OOOOOOOOXXXXXXXXXXXXXXXX........oooooooo++++++++oooooooooooooooooooooooo................        XXXXXXXX",
"XXXXXXXX........++++++++OOOOOOOOXXXXXXXXXXXXXXXX........oooooooo++++++++oooooooooooooooooooooooo................        XXXXXXXX",
"XXXXXXXX........++++++++OOOOOOOOXXXXXXXXXXXXXXXX........oooooooo++++++++oooooooooooooooooooooooo................        XXXXXXXX",
"XXXXXXXX........++++++++OOOOOOOOXXXXXXXXXXXXXXXX........oooooooo++++++++oooooooooooooooooooooooo................        XXXXXXXX",
"XXXXXXXX........++++++++OOOOOOOOXXXXXXXXXXXXXXXX........oooooooo++++++++oooooooooooooooooooooooo................        XXXXXXXX",
"XXXXXXXX........++++++++OOOOOOOOXXXXXXXXXXXXXXXX........oooooooo++++++++oooooooooooooooooooooooo................        XXXXXXXX",
"........++++++++OOOOOOOOooooooooXXXXXXXXooooooooXXXXXXXXXXXXXXXXoooooooooooooooo........XXXXXXXX........ooooooooOOOOOOOO........",
"........++++++++OOOOOOOOooooooooXXXXXXXXooooooooXXXXXXXXXXXXXXXXoooooooooooooooo........XXXXXXXX........ooooooooOOOOOOOO........",
"........++++++++OOOOOOOOooooooooXXXXXXXXooooooooXXXXXXXXXXXXXXXXoooooooooooooooo........XXXXXXXX........ooooooooOOOOOOOO........",
"........++++++++OOOOOOOOooooooooXXXXXXXXooooooooXXXXXXXXXXXXXXXXoooooooooooooooo........XXXXXXXX........ooooooooOOOOOOOO........",
"........++++++++OOOOOOOOooooooooXXXXXXXXooooooooXXXXXXXXXXXXXXXXoooooooooooooooo........XXXXXXXX........ooooooooOOOOOOOO........",
"........++++++++OOOOOOOOooooooooXXXXXXXXooooooooXXXXXXXXXXXXXXXXoooooooooooooooo........XXXXXXXX........ooooooooOOOOOOOO........",
"........++++++++OOOOOOOOooooooooXXXXXXXXooooooooXXXXXXXXXXXXXXXXoooooooooooooooo........XXXXXXXX........ooooooooOOOOOOOO........",
"........++++++++OOOOOOOOooooooooXXXXXXXXooooooooXXXXXXXXXXXXXXXXoooooooooooooooo........XXXXXXXX........ooooooooOOOOOOOO........",
"ooooooooXXXXXXXXooooooooXXXXXXXXoooooooo................        ........XXXXXXXXXXXXXXXX........        OOOOOOOOOOOOOOOO++++++++",
"ooooooooXXXXXXXXooooooooXXXXXXXXoooooooo................        ........XXXXXXXXXXXXXXXX........        OOOOOOOOOOOOOOOO++++++++",
"ooooooooXXXXXXXXooooooooXXXXXXXXoooooooo................        ........XXXXXXXXXXXXXXXX........        OOOOOOOOOOOOOOOO++++++++",
"ooooooooXXXXXXXXooooooooXXXXXXXXoooooooo................        ........XXXXXXXXXXXXXXXX........        OOOOOOOOOOOOOOOO++++++++",
"ooooooooXXXXXXXXooooooooXXXXXXXXoooooooo................        ........XXXXXXXXXXXXXXXX........        OOOOOOOOOOOOOOOO++++++++",
"ooooooooXXXXXXXXooooooooXXXXXXXXoooooooo................        ........XXXXXXXXXXXXXXXX........        OOOOOOOOOOOOOOOO++++++++",
"ooooooooXXXXXXXXooooooooXXXXXXXXoooooooo................        ........XXXXXXXXXXXXXXXX........        OOOOOOOOOOOOOOOO++++++++",
"ooooooooXXXXXXXXooooooooXXXXXXXXoooooooo................        ........XXXXXXXXXXXXXXXX........        OOOOOOOOOOOOOOOO++++++++",
"ooooooooXXXXXXXXXXXXXXXX................XXXXXXXXoooooooo++++++++OOOOOOOO................        oooooooo++++++++++++++++oooooooo",
"ooooooooXXXXXXXXXXXXXXXX................XXXXXXXXoooooooo++++++++OOOOOOOO................        oooooooo++++++++++++++++oooooooo",
"ooooooooXXXXXXXXXXXXXXXX................XXXXXXXXoooooooo++++++++OOOOOOOO................        oooooooo++++++++++++++++oooooooo",
"ooooooooXXXXXXXXXXXXXXXX................XXXXXXXXoooooooo++++++++OOOOOOOO................        oooooooo++++++++++++++++oooooooo",
"ooooooooXXXXXXXXXXXXXXXX................XXXXXXXXoooooooo++++++++OOOOOOOO................        oooooooo++++++++++++++++oooooooo",
"ooooooooXXXXXXXXXXXXXXXX................XXXXXXXXoooooooo++++++++OOOOOOOO................        oooooooo++++++++++++++++oooooooo",
"ooooooooXXXXXXXXXXXXXXXX................XXXXXXXXoooooooo++++++++OOOOOOOO................        oooooooo++++++++++++++++oooooooo",
"ooooooooXXXXXXXXXXXXXXXX................XXXXXXXXoooooooo++++++++OOOOOOOO................        oooooooo++++++++++++++++oooooooo",
"XXXXXXXXoooooooo++++++++OOOOOOOOXXXXXXXX........++++++++OOOOOOOOooooooooOOOOOOOOXXXXXXXX........ooooooooooooooooXXXXXXXXoooooooo",
"XXXXXXXXoooooooo++++++++OOOOOOOOXXXXXXXX........++++++++OOOOOOOOooooooooOOOOOOOOXXXXXXXX........ooooooooooooooooXXXXXXXXoooooooo",
"XXXXXXXXoooooooo++++++++OOOOOOOOXXXXXXXX........++++++++OOOOOOOOooooooooOOOOOOOOXXXXXXXX........ooooooooooooooooXXXXXXXXoooooooo",
"XXXXXXXXoooooooo++++++++OOOOOOOOXXXXXXXX........++++++++OOOOOOOOooooooooOOOOOOOOXXXXXXXX........ooooooooooooooooXXXXXXXXoooooooo",
"XXXXXXXXoooooooo++++++++OOOOOOOOXXXXXXXX........++++++++OOOOOOOOooooooooOOOOOOOOXXXXXXXX........ooooooooooooooooXXXXXXXXoooooooo",
"XXXXXXXXoooooooo++++++++OOOOOOOOXXXXXXXX........++++++++OOOOOOOOooooooooOOOOOOOOXXXXXXXX........ooooooooooooooooXXXXXXXXoooooooo",
"XXXXXXXXoooooooo++++++++OOOOOOOOXXXXXXXX........++++++++OOOOOOOOooooooooOOOOOOOOXXXXXXXX........ooooooooooooooooXXXXXXXXoooooooo",
"XXXXXXXXoooooooo++++++++OOOOOOOOXXXXXXXX........++++++++OOOOOOOOooooooooOOOOOOOOXXXXXXXX........ooooooooooooooooXXXXXXXXoooooooo",
"........++++++++OOOOOOOOoooooooooooooooo........OOOOOOOOooooooooXXXXXXXXooooooooooooooooXXXXXXXX................ooooooooXXXXXXXX",
"........++++++++OOOOOOOOoooooooooooooooo........OOOOOOOOooooooooXXXXXXXXooooooooooooooooXXXXXXXX................ooooooooXXXXXXXX",
"........++++++++OOOOOOOOoooooooooooooooo........OOOOOOOOooooooooXXXXXXXXooooooooooooooooXXXXXXXX................ooooooooXXXXXXXX",
"........++++++++OOOOOOOOoooooooooooooooo........OOOOOOOOooooooooXXXXXXXXooooooooooooooooXXXXXXXX................ooooooooXXXXXXXX",
"........++++++++OOOOOOOOoooooooooooooooo........OOOOOOOOooooooooXXXXXXXXooooooooooooooooXXXXXXXX................ooooooooXXXXXXXX",
"........++++++++OOOOOOOOoooooooooooooooo........OOOOOOOOooooooooXXXXXXXXooooooooooooooooXXXXXXXX................ooooooooXXXXXXXX",
"........++++++++OOOOOOOOoooooooooooooooo........OOOOOOOOooooooooXXXXXXXXooooooooooooooooXXXXXXXX................ooooooooXXXXXXXX",
"........++++++++OOOOOOOOoooooooooooooooo........OOOOOOOOooooooooXXXXXXXXooooooooooooooooXXXXXXXX................ooooooooXXXXXXXX",
"OOOOOOOOOOOOOOOOooooooooXXXXXXXXooooooooXXXXXXXX........XXXXXXXXooooooooooooooooXXXXXXXX........OOOOOOOOoooooooo................",
"OOOOOOOOOOOOOOOOooooooooXXXXXXXXooooooooXXXXXXXX........XXXXXXXXooooooooooooooooXXXXXXXX........OOOOOOOOoooooooo................",
"OOOOOOOOOOOOOOOOooooooooXXXXXXXXooooooooXXXXXXXX........XXXXXXXXooooooooooooooooXXXXXXXX........OOOOOOOOoooooooo................",
"OOOOOOOOOOOOOOOOooooooooXXXXXXXXooooooooXXXXXXXX........XXXXXXXXooooooooooooooooXXXXXXXX........OOOOOOOOoooooooo................",
"OOOOOOOOOOOOOOOOooooooooXXXXXXXXooooooooXXXXXXXX........XXXXXXXXooooooooooooooooXXXXXXXX........OOOOOOOOoooooooo................",
"OOOOOOOOOOOOOOOOooooooooXXXXXXXXooooooooXXXXXXXX........XXXXXXXXooooooooooooooooXXXXXXXX........OOOOOOOOoooooooo................",
"OOOOOOOOOOOOOOOOooooooooXXXXXXXXooooooooXXXXXXXX........XXXXXXXXooooooooooooooooXXXXXXXX........OOOOOOOOoooooooo................",
"OOOOOOOOOOOOOOOOooooooooXXXXXXXXooooooooXXXXXXXX........XXXXXXXXooooooooooooooooXXXXXXXX........OOOOOOOOoooooooo................",
"........oooooooo................XXXXXXXXooooooooXXXXXXXX........XXXXXXXX................oooooooo++++++++OOOOOOOOooooooooXXXXXXXX",
"........oooooooo................XXXXXXXXooooooooXXXXXXXX........XXXXXXXX................oooooooo++++++++OOOOOOOOooooooooXXXXXXXX",
"........oooooooo................XXXXXXXXooooooooXXXXXXXX........XXXXXXXX................oooooooo++++++++OOOOOOOOooooooooXXXXXXXX",
"........oooooooo................XXXXXXXXooooooooXXXXXXXX........XXXXXXXX................oooooooo++++++++OOOOOOOOooooooooXXXXXXXX",
"........oooooooo................XXXXXXXXooooooooXXXXXXXX........XXXXXXXX................oooooooo++++++++OOOOOOOOooooooooXXXXXXXX",
"........oooooooo................XXXXXXXXooooooooXXXXXXXX........XXXXXXXX................oooooooo++++++++OOOOOOOOooooooooXXXXXXXX",
"........oooooooo................XXXXXXXXooooooooXXXXXXXX........XXXXXXXX................oooooooo++++++++OOOOOOOOooooooooXXXXXXXX",
"........oooooooo................XXXXXXXXooooooooXXXXXXXX........XXXXXXXX................oooooooo++++++++OOOOOOOOooooooooXXXXXXXX"
};
